<svg xmlns="http://www.w3.org/2000/svg" width="58" height="58" fill="none"><path stroke="#000" stroke-linecap="round" stroke-linejoin="round" stroke-width="2" d="M56.5 42.53v8.25a5.5 5.5 0 0 1-5.995 5.5 54.422 54.422 0 0 1-23.733-8.443 53.625 53.625 0 0 1-16.5-16.5A54.423 54.423 0 0 1 1.83 7.495 5.5 5.5 0 0 1 7.303 1.5h8.25a5.5 5.5 0 0 1 5.5 4.73 35.31 35.31 0 0 0 1.924 7.727 5.5 5.5 0 0 1-1.237 5.803l-3.492 3.492a44 44 0 0 0 16.5 16.5l3.492-3.492a5.5 5.5 0 0 1 5.802-1.237 35.31 35.31 0 0 0 7.728 1.924 5.5 5.5 0 0 1 4.73 5.583Z"/></svg>